<?xml version="1.0" encoding="UTF-8"?>
<svg width="700pt" height="700pt" version="1.1" viewBox="0 0 700 700" xmlns="http://www.w3.org/2000/svg">
 <path d="m548.82 157.25c-2.9766-19.105-11.953-36.77-25.625-50.445-13.676-13.672-31.34-22.648-50.445-25.625-81.633-7.9102-163.84-7.9102-245.47 0-19.109 2.9766-36.777 11.949-50.453 25.625-13.68 13.672-22.656 31.34-25.637 50.445-7.9102 81.633-7.9102 163.84 0 245.47 2.9766 19.113 11.949 36.785 25.629 50.461 13.676 13.68 31.348 22.652 50.461 25.629 81.633 7.9102 163.84 7.9102 245.47 0 19.109-2.9766 36.777-11.953 50.449-25.633 13.676-13.676 22.648-31.348 25.621-50.457 7.9102-81.633 7.9102-163.84 0-245.47zm-141.31 143.13 38.219 38.203h0.003906c6.6328 6.6328 9.2227 16.301 6.793 25.363-2.4258 9.0625-9.5039 16.141-18.566 18.566-9.0625 2.4297-18.73-0.16016-25.363-6.793l-38.203-38.219v-0.003906c-5.4062-5.4023-12.734-8.4375-20.379-8.4375-7.6406 0-14.973 3.0352-20.379 8.4375l-38.219 38.223c-6.6289 6.6328-16.297 9.2227-25.355 6.8008-9.0625-2.4258-16.141-9.5-18.566-18.559-2.4297-9.0625 0.15625-18.727 6.7852-25.359l38.223-38.223c5.4023-5.4062 8.4375-12.734 8.4375-20.379 0-7.6406-3.0352-14.973-8.4375-20.379l-38.223-38.219c-6.6328-6.6328-9.2227-16.301-6.793-25.363 2.4258-9.0625 9.5039-16.141 18.566-18.566 9.0625-2.4297 18.73 0.16016 25.363 6.793l38.219 38.219v0.003906c5.4062 5.4023 12.738 8.4375 20.379 8.4375 7.6445 0 14.973-3.0352 20.379-8.4375l38.223-38.223c4.9219-4.9219 11.602-7.6836 18.562-7.6836 6.9648 0.003906 13.641 2.7695 18.562 7.6953 4.9219 4.9219 7.6875 11.602 7.6836 18.562 0 6.9648-2.7695 13.641-7.6914 18.562l-38.219 38.219h-0.003906c-5.4023 5.4062-8.4375 12.738-8.4375 20.379 0 7.6445 3.0352 14.973 8.4375 20.379z"/>
</svg>
