<?xml version="1.0" encoding="UTF-8"?>
<svg width="700pt" height="700pt" version="1.1" viewBox="0 0 700 700" xmlns="http://www.w3.org/2000/svg">
 <g>
  <path d="m522.31 560h-344.62c-28.551-0.035156-55.922-11.391-76.109-31.582-20.191-20.188-31.547-47.559-31.582-76.109v-344.62c0.035156-28.551 11.391-55.922 31.582-76.109 20.188-20.191 47.559-31.547 76.109-31.582h344.62c28.551 0.035156 55.922 11.391 76.109 31.582 20.191 20.188 31.547 47.559 31.582 76.109v344.62c-0.035156 28.551-11.391 55.922-31.582 76.109-20.188 20.191-47.559 31.547-76.109 31.582zm-344.62-516.92c-17.137 0-33.57 6.8047-45.688 18.926-12.121 12.117-18.926 28.551-18.926 45.688v344.62c0 17.137 6.8047 33.57 18.926 45.688 12.117 12.121 28.551 18.926 45.688 18.926h344.62c17.137 0 33.57-6.8047 45.688-18.926 12.121-12.117 18.926-28.551 18.926-45.688v-344.62c0-17.137-6.8047-33.57-18.926-45.688-12.117-12.121-28.551-18.926-45.688-18.926z"/>
  <path d="m286.68 409.23c-5.6445-0.011719-11.059-2.2383-15.074-6.2031l-87.426-86.152c-4.9922-5.4805-6.8125-13.145-4.8242-20.281 1.9922-7.1406 7.5117-12.758 14.617-14.867 7.1055-2.1094 14.797-0.41797 20.359 4.4766l72.152 71.078 199.02-200.05c4-4.1641 9.5078-6.5469 15.285-6.6133 5.7734-0.066407 11.336 2.1914 15.43 6.2617 4.0977 4.0742 6.3867 9.6211 6.3516 15.398-0.03125 5.7773-2.3828 11.297-6.5273 15.324l-214.09 215.38h0.003907c-4.0625 4.0273-9.5547 6.2734-15.273 6.2461z"/>
 </g>
</svg>
