<?xml version="1.0" encoding="UTF-8"?>
<svg width="32px" height="32px" version="1.1" viewBox="0 0 700 700" fill="green" xmlns="http://www.w3.org/2000/svg">
 <path d="m549.11 157.1c-2.9883-19.137-11.98-36.832-25.676-50.527-13.699-13.695-31.395-22.684-50.535-25.668-81.742-7.9258-164.06-7.9258-245.8 0-19.137 2.9844-36.832 11.973-50.527 25.668-13.695 13.695-22.684 31.391-25.668 50.527-7.9258 81.742-7.9258 164.06 0 245.8 2.9805 19.141 11.969 36.836 25.664 50.531 13.695 13.695 31.391 22.684 50.531 25.664 81.742 7.9258 164.06 7.9258 245.8 0 19.141-2.9844 36.836-11.973 50.535-25.668 13.695-13.695 22.688-31.391 25.676-50.527 7.9102-81.742 7.9102-164.06 0-245.8zm-106.85 142.5-128.28 74.898c-14.246 10.691-35.629-3.5-35.629-21.367v-146.18c-0.34766-5.7305 1.4219-11.387 4.9727-15.898 3.5508-4.5117 8.6367-7.5586 14.289-8.5703 5.6523-1.0078 11.477 0.097656 16.367 3.1016l128.27 74.812c17.816 10.695 17.816 32.078 0.003907 39.203z"/>
</svg>
