<?xml version="1.0" encoding="UTF-8"?>
<svg width="700pt" height="700pt" version="1.1" viewBox="0 0 700 700" xmlns="http://www.w3.org/2000/svg">
 <g>
  <path d="m548.82 157.25c-2.9766-19.105-11.953-36.77-25.625-50.445-13.676-13.672-31.34-22.648-50.445-25.625-81.633-7.9102-163.84-7.9102-245.47 0-19.109 2.9766-36.777 11.949-50.453 25.625-13.68 13.672-22.656 31.34-25.637 50.445-7.9102 81.641-7.9102 163.85 0 245.49 2.9766 19.109 11.953 36.777 25.633 50.449 13.676 13.676 31.348 22.648 50.457 25.621 81.633 7.9102 163.84 7.9102 245.47 0 19.105-2.9766 36.77-11.953 50.445-25.625 13.672-13.676 22.648-31.34 25.625-50.445 7.9102-81.641 7.9102-163.85 0-245.49zm-67.164 136.08v0.003907c-0.46875 7.0781-6.3281 12.586-13.422 12.617l-9.2031 0.24609h-0.003906c-5.375 0.035156-10.23 3.2188-12.406 8.1367-1.0312 2.5898-2.1875 5.1289-3.5 7.6289-2.3125 4.5742-1.3945 10.121 2.2734 13.703 2.0469 2.0117 4.0938 3.9883 6.125 5.9688 2.2734 2.4883 3.4375 5.793 3.2227 9.1562-0.21484 3.3633-1.7891 6.4961-4.3594 8.6758l-21 21c-2.1797 2.5664-5.3125 4.1367-8.6758 4.3516-3.3594 0.21484-6.6641-0.94531-9.1562-3.2148-1.9766-2.0312-3.9531-4.0781-5.9688-6.125-3.5781-3.668-9.125-4.5898-13.699-2.2773-2.5039 1.2422-5.0391 2.3984-7.6289 3.5h-0.003906c-4.9102 2.1758-8.0938 7.0234-8.1367 12.391 0 3.0781-0.15625 6.1406-0.24609 9.2227-0.027343 7.0938-5.5391 12.957-12.617 13.422-8.8906 0.16406-17.781 0.16406-26.672 0h0.003906c-7.0781-0.46484-12.586-6.3281-12.617-13.422 0-3.0781-0.17578-6.1406-0.24609-9.2227-0.042969-5.3672-3.2266-10.215-8.1367-12.391-2.5898-1.0312-5.1289-2.1875-7.6289-3.5-4.5742-2.3125-10.121-1.3906-13.703 2.2773-2.0117 2.0469-3.9883 4.0938-5.9688 6.125-2.4922 2.2695-5.7969 3.4297-9.1562 3.2148-3.3633-0.21484-6.4922-1.7852-8.6758-4.3516l-21-21c-2.5703-2.1797-4.1445-5.3125-4.3594-8.6758-0.21484-3.3633 0.94922-6.668 3.2227-9.1562 2.0312-1.9766 4.0781-3.9531 6.125-5.9688 3.668-3.582 4.5898-9.1289 2.2734-13.703-1.2422-2.5039-2.3984-5.0391-3.5-7.6289-2.1719-4.9102-7.0195-8.0938-12.391-8.1367l-9.2227-0.24609c-7.0898-0.03125-12.953-5.5391-13.422-12.617-0.14062-8.8906-0.14062-17.781 0-26.672 0.46875-7.0781 6.3281-12.594 13.422-12.633l9.2227-0.22656v-0.003907c5.3711-0.042969 10.219-3.2266 12.391-8.1367 1.0312-2.5898 2.1875-5.1289 3.5-7.6289 2.3164-4.5742 1.3945-10.121-2.2734-13.703-2.0469-2.0117-4.0938-3.9883-6.125-5.9688-2.2695-2.4883-3.4297-5.793-3.2148-9.1562s1.7852-6.4922 4.3516-8.6758l21-21c2.1836-2.5664 5.3125-4.1367 8.6758-4.3516 3.3594-0.21484 6.6641 0.94531 9.1562 3.2148 1.9766 2.0312 3.9531 4.0781 5.9688 6.125 3.582 3.668 9.1289 4.5898 13.703 2.2773 2.5039-1.2422 5.0391-2.3984 7.6289-3.5 4.9102-2.1758 8.0938-7.0234 8.1367-12.391 0-3.0781 0.15625-6.1406 0.24609-9.2227 0.03125-7.0938 5.5391-12.957 12.617-13.422 8.8906-0.14062 17.781-0.14062 26.672 0h-0.003906c7.0781 0.46484 12.59 6.3281 12.617 13.422 0 3.0781 0.17578 6.1406 0.24609 9.2227 0.042969 5.3672 3.2266 10.215 8.1367 12.391 2.5898 1.0312 5.1289 2.1875 7.6289 3.5h0.003906c4.5742 2.3125 10.121 1.3906 13.699-2.2773 2.0117-2.0469 3.9883-4.0938 5.9688-6.125 2.4922-2.2695 5.7969-3.4297 9.1562-3.2148 3.3633 0.21484 6.4961 1.7852 8.6758 4.3516l21 21c2.5703 2.1797 4.1445 5.3125 4.3594 8.6758 0.21484 3.3633-0.94922 6.668-3.2227 9.1562-2.0312 1.9766-4.0781 3.9531-6.125 5.9688-3.668 3.582-4.5859 9.1289-2.2734 13.703 1.2422 2.5039 2.3984 5.0391 3.5 7.6289 2.1758 4.918 7.0312 8.1016 12.406 8.1367l9.2031 0.22656 0.003907 0.003906c7.0938 0.039062 12.953 5.5547 13.422 12.633 0.16406 8.8906 0.16406 17.781 0 26.672z"/>
  <path d="m404.81 280c0 30.27-24.539 54.809-54.809 54.809s-54.809-24.539-54.809-54.809 24.539-54.809 54.809-54.809 54.809 24.539 54.809 54.809"/>
 </g>
</svg>
