<?xml version="1.0" encoding="UTF-8"?>
<svg width="700pt" height="700pt" version="1.1" viewBox="0 0 700 700" xmlns="http://www.w3.org/2000/svg">
 <path d="m548.82 157.25c-2.9766-19.105-11.953-36.77-25.625-50.445-13.676-13.672-31.34-22.648-50.445-25.625-81.641-7.9102-163.85-7.9102-245.49 0-19.105 2.9766-36.77 11.953-50.445 25.625-13.672 13.676-22.648 31.34-25.625 50.445-7.9102 81.633-7.9102 163.84 0 245.47 2.9727 19.109 11.945 36.781 25.621 50.457 13.672 13.68 31.34 22.656 50.449 25.633 81.641 7.9102 163.85 7.9102 245.49 0 19.109-2.9766 36.777-11.953 50.449-25.633 13.676-13.676 22.648-31.348 25.621-50.457 7.9102-81.633 7.9102-163.84 0-245.47zm-73.395 71.453-121.92 137.43c-4.9648 5.5469-12.051 8.7266-19.496 8.75h-0.14062c-7.4023 0-14.465-3.1289-19.441-8.6133l-80.621-88.723c-4.9062-5.1172-7.5352-12-7.2891-19.082 0.24609-7.0859 3.3438-13.77 8.5938-18.531s12.203-7.1992 19.277-6.7578c7.0742 0.44141 13.668 3.7266 18.285 9.1094l60.934 67.129 102.57-115.5h0.003906c4.5977-5.2852 11.121-8.5117 18.113-8.9609 6.9922-0.44922 13.875 1.9141 19.113 6.5703 5.2422 4.6523 8.4023 11.207 8.7812 18.203 0.37891 6.9961-2.0508 13.855-6.7578 19.047z"/>
</svg>
